<svg id="icon_send" xmlns="http://www.w3.org/2000/svg" width="24" height="24" viewBox="0 0 24 24">
  <path id="Boundary" d="M0,0H24V24H0Z" fill="none"/>
  <path id="send" d="M20.318,11.983l-.007,0L2.515,3.463a.872.872,0,0,0-.926.1,1.241,1.241,0,0,0-.464.99V10a1.124,1.124,0,0,0,.814,1.133L7.92,13.208a.2.2,0,0,1,0,.378l-5.982,2.07a1.123,1.123,0,0,0-.814,1.132v5.448a1.187,1.187,0,0,0,.442.947.889.889,0,0,0,.948.1l17.8-8.468.008,0a1.641,1.641,0,0,0,0-2.827Z" transform="translate(0.875 -1.376)" fill="#a7d8d5"/>
</svg>
