<svg id="icon_studio" xmlns="http://www.w3.org/2000/svg" width="24" height="24" viewBox="0 0 24 24">
  <path id="Boundary" d="M0,0H24V24H0Z" fill="none"/>
  <path id="Stroke_1" data-name="Stroke 1" d="M0,4.65l.742-.807C1.526,2.99,2.731,1.706,4.3,0" transform="translate(8.288 2.802)" fill="none" stroke="#addedb" stroke-miterlimit="10" stroke-width="1.5"/>
  <path id="Fill_3" data-name="Fill 3" d="M10.52,6.933a3.445,3.445,0,0,0-.852-1.716L7.492,2.852,5.257.861C5.3.9,7.272,3.045,7.272,3.045l2.19,2.38A3.191,3.191,0,0,1,10.294,7.6a3.219,3.219,0,0,1-.412,1.579q-.069.126-.155.25a3.516,3.516,0,0,1-.28.343l-4.4,4.671c-.072.074-.149.149-.226.215-.026.024-.054.044-.086.071l-.034.027a2.691,2.691,0,0,1-3.547-.343,3.235,3.235,0,0,1-.074-4.332l.492-.546L3.415,7.576,1.3,5.306A3.243,3.243,0,0,1,.72,1.88a2.409,2.409,0,0,1,.126-.262,2.954,2.954,0,0,1,.232-.369c.06-.081.123-.158.189-.232a2.6,2.6,0,0,1,.2-.2L1.481.8,2.2,0A3.125,3.125,0,0,0,1.058.814a2.772,2.772,0,0,0-.206.253,3.154,3.154,0,0,0-.257.405c-.049.092-.094.191-.137.289A3.554,3.554,0,0,0,1.1,5.515L3.014,7.576,1.364,9.329l-.492.548a3.541,3.541,0,0,0,.083,4.746,2.966,2.966,0,0,0,3.918.369c.006-.006.02-.015.04-.033s.063-.05.092-.074c.083-.072.166-.152.246-.235l4.4-4.671a3.8,3.8,0,0,0,.3-.375c.063-.09.12-.182.174-.277A3.53,3.53,0,0,0,10.58,7.6a3.268,3.268,0,0,0-.06-.667" transform="translate(7 6.687)" fill="#240f39" stroke="#addedb" stroke-miterlimit="10" stroke-width="1"/>
  <path id="Stroke_6" data-name="Stroke 6" d="M2.971,7.746.892,5.525A3.4,3.4,0,0,1,.867.964,2.881,2.881,0,0,1,5.093.883,3.278,3.278,0,0,1,5.17,5.34Z" transform="translate(11.566 2)" fill="none" stroke="#addedb" stroke-miterlimit="10" stroke-width="1.4"/>
</svg>
